<mxfile host="app.diagrams.net" modified="2023-09-07T01:19:13.722Z" agent="Mozilla/5.0 (Windows NT 10.0; Win64; x64) AppleWebKit/537.36 (KHTML, like Gecko) Chrome/116.0.0.0 Safari/537.36 Edg/116.0.1938.69" etag="2wW67FZPNt4lpU0rHGmP" version="21.7.1" type="github">
  <diagram id="C5RBs43oDa-KdzZeNtuy" name="Page-1">
    <mxGraphModel dx="951" dy="549" grid="1" gridSize="10" guides="1" tooltips="1" connect="1" arrows="1" fold="1" page="1" pageScale="1" pageWidth="827" pageHeight="1169" math="0" shadow="0">
      <root>
        <mxCell id="WIyWlLk6GJQsqaUBKTNV-0" />
        <mxCell id="WIyWlLk6GJQsqaUBKTNV-1" parent="WIyWlLk6GJQsqaUBKTNV-0" />
        <mxCell id="3n2ztn3IE_YCr1W7gHNS-5" value="" style="edgeStyle=orthogonalEdgeStyle;rounded=0;orthogonalLoop=1;jettySize=auto;html=1;" edge="1" parent="WIyWlLk6GJQsqaUBKTNV-1" source="WIyWlLk6GJQsqaUBKTNV-3" target="3n2ztn3IE_YCr1W7gHNS-4">
          <mxGeometry relative="1" as="geometry" />
        </mxCell>
        <mxCell id="WIyWlLk6GJQsqaUBKTNV-3" value="Player Running" style="rounded=1;whiteSpace=wrap;html=1;fontSize=12;glass=0;strokeWidth=1;shadow=0;" parent="WIyWlLk6GJQsqaUBKTNV-1" vertex="1">
          <mxGeometry x="40" y="40" width="120" height="40" as="geometry" />
        </mxCell>
        <mxCell id="3n2ztn3IE_YCr1W7gHNS-7" value="" style="edgeStyle=orthogonalEdgeStyle;rounded=0;orthogonalLoop=1;jettySize=auto;html=1;" edge="1" parent="WIyWlLk6GJQsqaUBKTNV-1" source="3n2ztn3IE_YCr1W7gHNS-4" target="3n2ztn3IE_YCr1W7gHNS-6">
          <mxGeometry relative="1" as="geometry" />
        </mxCell>
        <mxCell id="3n2ztn3IE_YCr1W7gHNS-8" value="Yes" style="edgeLabel;html=1;align=center;verticalAlign=middle;resizable=0;points=[];fontStyle=1" vertex="1" connectable="0" parent="3n2ztn3IE_YCr1W7gHNS-7">
          <mxGeometry x="-0.5281" y="-1" relative="1" as="geometry">
            <mxPoint as="offset" />
          </mxGeometry>
        </mxCell>
        <mxCell id="3n2ztn3IE_YCr1W7gHNS-10" style="edgeStyle=orthogonalEdgeStyle;rounded=0;orthogonalLoop=1;jettySize=auto;html=1;entryX=1;entryY=0.5;entryDx=0;entryDy=0;" edge="1" parent="WIyWlLk6GJQsqaUBKTNV-1" source="3n2ztn3IE_YCr1W7gHNS-4" target="WIyWlLk6GJQsqaUBKTNV-3">
          <mxGeometry relative="1" as="geometry">
            <Array as="points">
              <mxPoint x="180" y="140" />
              <mxPoint x="180" y="60" />
            </Array>
          </mxGeometry>
        </mxCell>
        <mxCell id="3n2ztn3IE_YCr1W7gHNS-11" value="&lt;b&gt;No&lt;/b&gt;" style="edgeLabel;html=1;align=center;verticalAlign=middle;resizable=0;points=[];" vertex="1" connectable="0" parent="3n2ztn3IE_YCr1W7gHNS-10">
          <mxGeometry x="-0.5855" relative="1" as="geometry">
            <mxPoint as="offset" />
          </mxGeometry>
        </mxCell>
        <mxCell id="3n2ztn3IE_YCr1W7gHNS-4" value="&lt;font style=&quot;font-size: 6px;&quot;&gt;&lt;b&gt;Has Player Reached 200(?)m?&lt;/b&gt;&lt;/font&gt;" style="rhombus;whiteSpace=wrap;html=1;rounded=1;glass=0;strokeWidth=1;shadow=0;" vertex="1" parent="WIyWlLk6GJQsqaUBKTNV-1">
          <mxGeometry x="60" y="100" width="80" height="80" as="geometry" />
        </mxCell>
        <mxCell id="3n2ztn3IE_YCr1W7gHNS-13" value="" style="edgeStyle=orthogonalEdgeStyle;rounded=0;orthogonalLoop=1;jettySize=auto;html=1;" edge="1" parent="WIyWlLk6GJQsqaUBKTNV-1" source="3n2ztn3IE_YCr1W7gHNS-6" target="3n2ztn3IE_YCr1W7gHNS-12">
          <mxGeometry relative="1" as="geometry" />
        </mxCell>
        <mxCell id="3n2ztn3IE_YCr1W7gHNS-6" value="Generate Random Number Between 1 &amp;amp; 10" style="whiteSpace=wrap;html=1;rounded=1;glass=0;strokeWidth=1;shadow=0;" vertex="1" parent="WIyWlLk6GJQsqaUBKTNV-1">
          <mxGeometry x="40" y="220" width="120" height="60" as="geometry" />
        </mxCell>
        <mxCell id="3n2ztn3IE_YCr1W7gHNS-14" style="edgeStyle=orthogonalEdgeStyle;rounded=0;orthogonalLoop=1;jettySize=auto;html=1;entryX=1;entryY=0.5;entryDx=0;entryDy=0;" edge="1" parent="WIyWlLk6GJQsqaUBKTNV-1" source="3n2ztn3IE_YCr1W7gHNS-12" target="WIyWlLk6GJQsqaUBKTNV-3">
          <mxGeometry relative="1" as="geometry">
            <Array as="points">
              <mxPoint x="230" y="60" />
            </Array>
          </mxGeometry>
        </mxCell>
        <mxCell id="3n2ztn3IE_YCr1W7gHNS-15" value="&lt;b&gt;No&lt;/b&gt;" style="edgeLabel;html=1;align=center;verticalAlign=middle;resizable=0;points=[];" vertex="1" connectable="0" parent="3n2ztn3IE_YCr1W7gHNS-14">
          <mxGeometry x="-0.8646" relative="1" as="geometry">
            <mxPoint as="offset" />
          </mxGeometry>
        </mxCell>
        <mxCell id="3n2ztn3IE_YCr1W7gHNS-17" value="" style="edgeStyle=orthogonalEdgeStyle;rounded=0;orthogonalLoop=1;jettySize=auto;html=1;entryX=1;entryY=0.5;entryDx=0;entryDy=0;" edge="1" parent="WIyWlLk6GJQsqaUBKTNV-1" source="3n2ztn3IE_YCr1W7gHNS-12" target="3n2ztn3IE_YCr1W7gHNS-16">
          <mxGeometry relative="1" as="geometry">
            <Array as="points">
              <mxPoint x="230" y="330" />
            </Array>
          </mxGeometry>
        </mxCell>
        <mxCell id="3n2ztn3IE_YCr1W7gHNS-18" value="&lt;b&gt;Yes&lt;/b&gt;" style="edgeLabel;html=1;align=center;verticalAlign=middle;resizable=0;points=[];" vertex="1" connectable="0" parent="3n2ztn3IE_YCr1W7gHNS-17">
          <mxGeometry x="-0.808" y="2" relative="1" as="geometry">
            <mxPoint as="offset" />
          </mxGeometry>
        </mxCell>
        <mxCell id="3n2ztn3IE_YCr1W7gHNS-12" value="&lt;b&gt;&lt;font style=&quot;font-size: 8px;&quot;&gt;Generated &lt;br&gt;Number = 5&lt;/font&gt;&lt;/b&gt;" style="rhombus;whiteSpace=wrap;html=1;rounded=1;glass=0;strokeWidth=1;shadow=0;" vertex="1" parent="WIyWlLk6GJQsqaUBKTNV-1">
          <mxGeometry x="190" y="210" width="80" height="80" as="geometry" />
        </mxCell>
        <mxCell id="3n2ztn3IE_YCr1W7gHNS-20" value="" style="edgeStyle=orthogonalEdgeStyle;rounded=0;orthogonalLoop=1;jettySize=auto;html=1;" edge="1" parent="WIyWlLk6GJQsqaUBKTNV-1" source="3n2ztn3IE_YCr1W7gHNS-16" target="3n2ztn3IE_YCr1W7gHNS-19">
          <mxGeometry relative="1" as="geometry" />
        </mxCell>
        <mxCell id="3n2ztn3IE_YCr1W7gHNS-16" value="Spawn &lt;b&gt;Seal&lt;/b&gt;&amp;nbsp;offscreen" style="whiteSpace=wrap;html=1;rounded=1;glass=0;strokeWidth=1;shadow=0;" vertex="1" parent="WIyWlLk6GJQsqaUBKTNV-1">
          <mxGeometry x="40" y="300" width="120" height="60" as="geometry" />
        </mxCell>
        <mxCell id="3n2ztn3IE_YCr1W7gHNS-22" value="" style="edgeStyle=orthogonalEdgeStyle;rounded=0;orthogonalLoop=1;jettySize=auto;html=1;" edge="1" parent="WIyWlLk6GJQsqaUBKTNV-1" source="3n2ztn3IE_YCr1W7gHNS-19" target="3n2ztn3IE_YCr1W7gHNS-21">
          <mxGeometry relative="1" as="geometry" />
        </mxCell>
        <mxCell id="3n2ztn3IE_YCr1W7gHNS-19" value="Start 5 second timer" style="whiteSpace=wrap;html=1;rounded=1;glass=0;strokeWidth=1;shadow=0;" vertex="1" parent="WIyWlLk6GJQsqaUBKTNV-1">
          <mxGeometry x="40" y="380" width="120" height="60" as="geometry" />
        </mxCell>
        <mxCell id="3n2ztn3IE_YCr1W7gHNS-24" value="" style="edgeStyle=orthogonalEdgeStyle;rounded=0;orthogonalLoop=1;jettySize=auto;html=1;" edge="1" parent="WIyWlLk6GJQsqaUBKTNV-1" source="3n2ztn3IE_YCr1W7gHNS-21" target="3n2ztn3IE_YCr1W7gHNS-23">
          <mxGeometry relative="1" as="geometry" />
        </mxCell>
        <mxCell id="3n2ztn3IE_YCr1W7gHNS-21" value="Wait for timer" style="whiteSpace=wrap;html=1;rounded=1;glass=0;strokeWidth=1;shadow=0;" vertex="1" parent="WIyWlLk6GJQsqaUBKTNV-1">
          <mxGeometry x="40" y="460" width="120" height="60" as="geometry" />
        </mxCell>
        <mxCell id="3n2ztn3IE_YCr1W7gHNS-25" style="edgeStyle=orthogonalEdgeStyle;rounded=0;orthogonalLoop=1;jettySize=auto;html=1;entryX=1;entryY=0.5;entryDx=0;entryDy=0;" edge="1" parent="WIyWlLk6GJQsqaUBKTNV-1" source="3n2ztn3IE_YCr1W7gHNS-23" target="3n2ztn3IE_YCr1W7gHNS-21">
          <mxGeometry relative="1" as="geometry">
            <Array as="points">
              <mxPoint x="180" y="590" />
              <mxPoint x="180" y="490" />
            </Array>
          </mxGeometry>
        </mxCell>
        <mxCell id="3n2ztn3IE_YCr1W7gHNS-26" value="&lt;b&gt;No&lt;/b&gt;" style="edgeLabel;html=1;align=center;verticalAlign=middle;resizable=0;points=[];" vertex="1" connectable="0" parent="3n2ztn3IE_YCr1W7gHNS-25">
          <mxGeometry x="-0.7321" y="1" relative="1" as="geometry">
            <mxPoint as="offset" />
          </mxGeometry>
        </mxCell>
        <mxCell id="3n2ztn3IE_YCr1W7gHNS-23" value="Timer Complete?" style="rhombus;whiteSpace=wrap;html=1;rounded=1;glass=0;strokeWidth=1;shadow=0;" vertex="1" parent="WIyWlLk6GJQsqaUBKTNV-1">
          <mxGeometry x="60" y="550" width="80" height="80" as="geometry" />
        </mxCell>
      </root>
    </mxGraphModel>
  </diagram>
</mxfile>
